{
  "accessors": [
    {
      "bufferView": 2,
      "componentType": 5126,
      "count": 740,
      "max": [
        0.5446180105209351,
        3.2288360595703125,
        0.8622369766235352
      ],
      "min": [
        -1.7643320560455322,
        1.3215579986572266,
        -1.2207510471343994
      ],
      "type": "VEC3"
    },
    {
      "bufferView": 2,
      "byteOffset": 8880,
      "componentType": 5126,
      "count": 740,
      "max": [
        0.9979914426803589,
        0.9977211356163025,
        0.9980998635292053
      ],
      "min": [
        -0.998744547367096,
        -0.9981960654258728,
        -0.9969339966773987
      ],
      "type": "VEC3"
    },
    {
      "bufferView": 1,
      "componentType": 5126,
      "count": 740,
      "max": [
        0.9968879818916321,
        0.9973480105400085
      ],
      "min": [
        0.00024300000222865492,
        0.002767000114545226
      ],
      "type": "VEC2"
    },
    {
      "bufferView": 0,
      "componentType": 5125,
      "count": 2676,
      "type": "SCALAR"
    },
    {
      "bufferView": 2,
      "byteOffset": 17760,
      "componentType": 5126,
      "count": 119,
      "max": [
        0.1893479973077774,
        2.309614896774292,
        0.521681010723114
      ],
      "min": [
        -1.4211280345916748,
        1.8486939668655396,
        -0.11184900254011154
      ],
      "type": "VEC3"
    },
    {
      "bufferView": 0,
      "byteOffset": 10704,
      "componentType": 5125,
      "count": 144,
      "type": "SCALAR"
    },
    {
      "bufferView": 2,
      "byteOffset": 19188,
      "componentType": 5126,
      "count": 797,
      "max": [
        0.44097501039505005,
        2.588892936706543,
        0.5313720107078552
      ],
      "min": [
        -1.6597559452056885,
        1.772683024406433,
        -0.11188799887895584
      ],
      "type": "VEC3"
    },
    {
      "bufferView": 2,
      "byteOffset": 28752,
      "componentType": 5126,
      "count": 797,
      "max": [
        0.9973967671394348,
        0.9922221302986145,
        0.9997923970222473
      ],
      "min": [
        -0.9947789907455444,
        -0.9988654851913452,
        -0.9986439347267151
      ],
      "type": "VEC3"
    },
    {
      "bufferView": 1,
      "byteOffset": 5920,
      "componentType": 5126,
      "count": 797,
      "max": [
        0.2589719891548157,
        0.9999470114707947
      ],
      "min": [
        5.400000009103678e-05,
        2.5999999706982635e-05
      ],
      "type": "VEC2"
    },
    {
      "bufferView": 0,
      "byteOffset": 11280,
      "componentType": 5125,
      "count": 3906,
      "type": "SCALAR"
    },
    {
      "bufferView": 2,
      "byteOffset": 38316,
      "componentType": 5126,
      "count": 120,
      "max": [
        0.7492629885673523,
        5.108023166656494,
        3.585930109024048
      ],
      "min": [
        -2.003282070159912,
        1.5624619722366333,
        1.2931749820709229
      ],
      "type": "VEC3"
    },
    {
      "bufferView": 2,
      "byteOffset": 39756,
      "componentType": 5126,
      "count": 120,
      "max": [
        0.9406310319900513,
        0.9852693676948547,
        0.9735667705535889
      ],
      "min": [
        -0.9861475229263306,
        -0.9348388910293579,
        -0.9999898672103882
      ],
      "type": "VEC3"
    },
    {
      "bufferView": 1,
      "byteOffset": 12296,
      "componentType": 5126,
      "count": 120,
      "max": [
        0.9956250190734863,
        0.9878799915313721
      ],
      "min": [
        0.009723999537527561,
        0.0220979992300272
      ],
      "type": "VEC2"
    },
    {
      "bufferView": 0,
      "byteOffset": 26904,
      "componentType": 5125,
      "count": 417,
      "type": "SCALAR"
    }
  ],
  "asset": {
    "extras": {
      "author": "barbosajose (https://sketchfab.com/barbosajose)",
      "license": "CC-BY-4.0 (http://creativecommons.org/licenses/by/4.0/)",
      "source": "https://sketchfab.com/3d-models/santa-claus-fe2403765838484ebb6eefba7ea6a32c",
      "title": "santa claus"
    },
    "generator": "Sketchfab-12.68.0",
    "version": "2.0"
  },
  "bufferViews": [
    {
      "buffer": 0,
      "byteLength": 28572,
      "name": "floatBufferViews",
      "target": 34963
    },
    {
      "buffer": 0,
      "byteLength": 13256,
      "byteOffset": 28572,
      "byteStride": 8,
      "name": "floatBufferViews",
      "target": 34962
    },
    {
      "buffer": 0,
      "byteLength": 41196,
      "byteOffset": 41828,
      "byteStride": 12,
      "name": "floatBufferViews",
      "target": 34962
    }
  ],
  "buffers": [
    {
      "byteLength": 83024,
      "uri": "scene.bin"
    }
  ],
  "materials": [
    {
      "doubleSided": true,
      "name": "Material.001",
      "pbrMetallicRoughness": {
        "metallicFactor": 0.0,
        "roughnessFactor": 0.6
      }
    },
    {
      "doubleSided": true,
      "name": "Material.005",
      "pbrMetallicRoughness": {
        "metallicFactor": 0.0,
        "roughnessFactor": 0.6
      }
    },
    {
      "doubleSided": true,
      "name": "zug_santa_hat_mat_zugzug_hat_dif.png",
      "pbrMetallicRoughness": {
        "metallicFactor": 0.0,
        "roughnessFactor": 0.6
      }
    }
  ],
  "meshes": [
    {
      "name": "Object_0",
      "primitives": [
        {
          "attributes": {
            "NORMAL": 1,
            "POSITION": 0,
            "TEXCOORD_0": 2
          },
          "indices": 3,
          "material": 0,
          "mode": 4
        }
      ]
    },
    {
      "name": "Object_1",
      "primitives": [
        {
          "attributes": {
            "POSITION": 4
          },
          "indices": 5,
          "material": 1,
          "mode": 1
        }
      ]
    },
    {
      "name": "Object_2",
      "primitives": [
        {
          "attributes": {
            "NORMAL": 7,
            "POSITION": 6,
            "TEXCOORD_0": 8
          },
          "indices": 9,
          "material": 1,
          "mode": 4
        }
      ]
    },
    {
      "name": "Object_3",
      "primitives": [
        {
          "attributes": {
            "NORMAL": 11,
            "POSITION": 10,
            "TEXCOORD_0": 12
          },
          "indices": 13,
          "material": 2,
          "mode": 4
        }
      ]
    }
  ],
  "nodes": [
    {
      "children": [
        1
      ],
      "matrix": [
        1.0,
        0.0,
        0.0,
        0.0,
        0.0,
        2.220446049250313e-16,
        -1.0,
        0.0,
        0.0,
        1.0,
        2.220446049250313e-16,
        0.0,
        0.0,
        0.0,
        0.0,
        1.0
      ],
      "name": "Sketchfab_model"
    },
    {
      "children": [
        2,
        3,
        4,
        5
      ],
      "name": "0f25c46226b94ced81a3dd3be9440fc3.obj.cleaner.materialmerger.gles"
    },
    {
      "mesh": 0,
      "name": "Object_2"
    },
    {
      "mesh": 1,
      "name": "Object_3"
    },
    {
      "mesh": 2,
      "name": "Object_4"
    },
    {
      "mesh": 3,
      "name": "Object_5"
    }
  ],
  "scene": 0,
  "scenes": [
    {
      "name": "Sketchfab_Scene",
      "nodes": [
        0
      ]
    }
  ]
}
